<?xml version="1.0" encoding="utf-8"?>
<!-- Generator: Adobe Illustrator 15.1.0, SVG Export Plug-In . SVG Version: 6.00 Build 0)  -->
<!DOCTYPE svg PUBLIC "-//W3C//DTD SVG 1.1//EN" "http://www.w3.org/Graphics/SVG/1.1/DTD/svg11.dtd">
<svg version="1.1" id="Layer_1" xmlns="http://www.w3.org/2000/svg" xmlns:xlink="http://www.w3.org/1999/xlink" x="0px" y="0px"
	 width="698.563px" height="809.08px" viewBox="0 0 698.563 809.08" enable-background="new 0 0 698.563 809.08"
	 xml:space="preserve">
<path fill="#3A5538" d="M383.782,217.576c0,102.644-83.234,185.868-185.909,185.868c-102.651,0-185.878-83.224-185.878-185.868
	c0-102.682,83.228-185.909,185.878-185.909C300.548,31.667,383.782,114.895,383.782,217.576z"/>
<path fill="#3A5538" d="M688.054,441.683c0,123.721-100.353,224.052-224.104,224.052c-123.741,0-224.065-100.332-224.065-224.052
	c0-123.754,100.324-224.106,224.065-224.106C587.701,217.576,688.054,317.928,688.054,441.683z"/>
<path fill="#FFFFFF" d="M463.991,282.726c-87.813,0-158.95,71.138-158.95,158.957c0,87.754,71.138,158.923,158.95,158.923
	c87.758,0,158.926-71.168,158.926-158.923C622.917,353.864,551.749,282.726,463.991,282.726z M463.96,554.003
	c-62.06,0-112.333-50.294-112.333-112.32c0-62.094,50.273-112.368,112.333-112.368c62.061,0,112.371,50.274,112.371,112.368
	C576.331,503.708,526.021,554.003,463.96,554.003z"/>
<path fill="#3B5538" stroke="#3A5538" stroke-miterlimit="10" d="M268.557,572.764c-51.371,0-92.969,41.619-92.969,92.988
	c0,51.322,41.598,92.955,92.969,92.955c51.338,0,92.971-41.632,92.971-92.955C361.527,614.382,319.895,572.764,268.557,572.764z
	 M268.543,731.456c-36.311,0-65.709-29.427-65.709-65.704c0-36.345,29.398-65.738,65.709-65.738
	c36.303,0,65.721,29.394,65.721,65.738C334.264,702.029,304.846,731.456,268.543,731.456z"/>
</svg>
