<?xml version="1.0" encoding="UTF-8" standalone="no"?>
<!-- Generator: Adobe Illustrator 15.1.0, SVG Export Plug-In . SVG Version: 6.00 Build 0)  -->

<svg
   xmlns:dc="http://purl.org/dc/elements/1.1/"
   xmlns:cc="http://creativecommons.org/ns#"
   xmlns:rdf="http://www.w3.org/1999/02/22-rdf-syntax-ns#"
   xmlns:svg="http://www.w3.org/2000/svg"
   xmlns="http://www.w3.org/2000/svg"
   xmlns:sodipodi="http://sodipodi.sourceforge.net/DTD/sodipodi-0.dtd"
   xmlns:inkscape="http://www.inkscape.org/namespaces/inkscape"
   version="1.1"
   id="Layer_1"
   x="0px"
   y="0px"
   width="698.563px"
   height="809.08px"
   viewBox="0 0 698.563 809.08"
   enable-background="new 0 0 698.563 809.08"
   xml:space="preserve"
   inkscape:version="0.48.3.1 r9886"
   sodipodi:docname="bullseye.svg"><metadata
   id="metadata15"><rdf:RDF><cc:Work
       rdf:about=""><dc:format>image/svg+xml</dc:format><dc:type
         rdf:resource="http://purl.org/dc/dcmitype/StillImage" /></cc:Work></rdf:RDF></metadata><defs
   id="defs13" /><sodipodi:namedview
   pagecolor="#ffffff"
   bordercolor="#666666"
   borderopacity="1"
   objecttolerance="10"
   gridtolerance="10"
   guidetolerance="10"
   inkscape:pageopacity="0"
   inkscape:pageshadow="2"
   inkscape:window-width="1865"
   inkscape:window-height="1056"
   id="namedview11"
   showgrid="false"
   inkscape:zoom="1.5689226"
   inkscape:cx="326.05192"
   inkscape:cy="305.07438"
   inkscape:window-x="55"
   inkscape:window-y="24"
   inkscape:window-maximized="1"
   inkscape:current-layer="Layer_1" />
<path
   style="opacity:0.06896552;fill:#3a5538"
   d="M 197.875 31.65625 C 95.225004 31.65625 12 114.8805 12 217.5625 C 12 320.2065 95.224004 403.4375 197.875 403.4375 C 213.87333 403.4375 229.40573 401.42472 244.21875 397.625 C 241.37702 411.87452 239.875 426.60327 239.875 441.6875 C 239.875 491.13122 255.89432 536.8425 283.03125 573.90625 C 278.3145 573.16881 273.48595 572.75 268.5625 572.75 C 217.1915 572.75 175.59375 614.381 175.59375 665.75 C 175.59375 717.072 217.1915 758.71875 268.5625 758.71875 C 319.9005 758.71875 361.53125 717.073 361.53125 665.75 C 361.53107 656.42741 360.14533 647.42727 357.59375 638.9375 C 389.23174 656.03011 425.45733 665.75 463.9375 665.75 C 587.6885 665.75 688.0625 565.4085 688.0625 441.6875 C 688.0625 317.9325 587.6885 217.5615 463.9375 217.5625 C 435.46618 217.5625 408.24261 222.90571 383.1875 232.59375 C 383.58372 227.64 383.78125 222.6181 383.78125 217.5625 C 383.78125 114.8815 300.55 31.65625 197.875 31.65625 z M 268.53125 600 C 304.83425 600 334.25 629.406 334.25 665.75 C 334.25 702.027 304.83425 731.46875 268.53125 731.46875 C 232.22025 731.46875 202.84375 702.027 202.84375 665.75 C 202.84375 629.405 232.22025 600 268.53125 600 z "
   id="path3"
   transform="translate(0,-1.5331287e-5)" />

<path
   fill="#FFFFFF"
   d="M463.991,282.726c-87.813,0-158.95,71.138-158.95,158.957c0,87.754,71.138,158.923,158.95,158.923  c87.758,0,158.926-71.168,158.926-158.923C622.917,353.864,551.749,282.726,463.991,282.726z M463.96,554.003  c-62.06,0-112.333-50.294-112.333-112.32c0-62.094,50.273-112.368,112.333-112.368c62.061,0,112.371,50.274,112.371,112.368  C576.331,503.708,526.021,554.003,463.96,554.003z"
   id="path7"
   style="opacity:0.99" />

</svg>