<?xml version="1.0" encoding="UTF-8" standalone="no"?>
<svg
   xmlns:dc="http://purl.org/dc/elements/1.1/"
   xmlns:cc="http://creativecommons.org/ns#"
   xmlns:rdf="http://www.w3.org/1999/02/22-rdf-syntax-ns#"
   xmlns:svg="http://www.w3.org/2000/svg"
   xmlns="http://www.w3.org/2000/svg"
   xmlns:sodipodi="http://sodipodi.sourceforge.net/DTD/sodipodi-0.dtd"
   xmlns:inkscape="http://www.inkscape.org/namespaces/inkscape"
   version="1.1"
   id="Layer_1"
   x="0px"
   y="0px"
   width="100px"
   height="100px"
   viewBox="0 0 100 100"
   enable-background="new 0 0 100 100"
   xml:space="preserve"
   inkscape:version="0.48.3.1 r9886"
   sodipodi:docname="happy.svg"><metadata
   id="metadata9"><rdf:RDF><cc:Work
       rdf:about=""><dc:format>image/svg+xml</dc:format><dc:type
         rdf:resource="http://purl.org/dc/dcmitype/StillImage" /></cc:Work></rdf:RDF></metadata><defs
   id="defs7" /><sodipodi:namedview
   pagecolor="#ffffff"
   bordercolor="#666666"
   borderopacity="1"
   objecttolerance="10"
   gridtolerance="10"
   guidetolerance="10"
   inkscape:pageopacity="0"
   inkscape:pageshadow="2"
   inkscape:window-width="1865"
   inkscape:window-height="1056"
   id="namedview5"
   showgrid="false"
   inkscape:zoom="2.36"
   inkscape:cx="50"
   inkscape:cy="50"
   inkscape:window-x="55"
   inkscape:window-y="24"
   inkscape:window-maximized="1"
   inkscape:current-layer="Layer_1" />
<path
   d="M50.921,3.992c-25.682,0-46.5,20.818-46.5,46.5s20.819,46.501,46.5,46.501c25.681,0,46.5-20.819,46.5-46.501  S76.603,3.992,50.921,3.992z M63.89,29.931c2.796,0,5.062,2.56,5.062,5.719c0,3.16-2.267,5.721-5.062,5.721  c-2.795,0-5.06-2.561-5.06-5.721C58.83,32.491,61.095,29.931,63.89,29.931z M36.686,29.931c2.795,0,5.061,2.56,5.061,5.719  c0,3.16-2.266,5.721-5.061,5.721c-2.795,0-5.061-2.561-5.061-5.721C31.625,32.491,33.891,29.931,36.686,29.931z M50.368,82.069  c-14.708,0-27.052-9.233-30.242-21.584c-0.121-0.467,2.918-1.416,2.918-1.416c2.619,10.977,13.875,19.253,27.324,19.253  c13.45,0,24.706-8.276,27.325-19.253c0,0,3.049,0.906,2.935,1.353C77.463,72.805,65.101,82.069,50.368,82.069z"
   id="path3"
   style="fill:#62c729;fill-opacity:1" />
</svg>